:SAMPLES-PER-SECOND 30
:FULLY-SPECIFIED
:DEGREES
136
root  -78.8911 41.5308 -9.36736 172.348 -89.5585 -179.734
RightUpLeg  3.06827 -7.10948 -2.04336
RightLeg  7.68018 4.42441 4.11921
RightFoot  -1.34357 0.47281 -5.50171
RightToes  0.000482159 0.542163 -0.142577
Spine  7.79883 -0.814132 4.57315
Spine1  2.31126 -0.0753059 -2.1462
HEad  -22.5758 -7.54169 2.18154
LeftShoulder1  0.918354 -3.28836 -5.59206
LeftArm  -18.7903 25.2373 -8.82773
LeftForeArm  11.1591 -9.80213 -0.967799
LeftHand  -0.25398 0.0180481 5.50724
RightShoulder  1.01784 1.43521 13.7362
RightArm  -13.0851 -10.1551 4.65712
RightForeArm  -18.0731 7.0358 6.43348
RightHand  -2.44626 6.90751 -23.1484
LeftUpLeg  -0.692614 5.02513 3.82145
LeftLeg  7.24533 2.63404 -1.31801
LeftFoot  -0.00588609 0.0319317 -0.311319
LeftToes  1.06247e-005 4.65854e-005 -8.18502e-006
137
root  -79.2596 41.5736 -9.37625 -151.78 -89.4413 144.521
RightUpLeg  3.68759 -7.13972 -2.3709
RightLeg  7.37479 4.53701 3.97113
RightFoot  -1.7134 0.451136 -5.48637
RightToes  0.000482159 0.542163 -0.142577
Spine  7.41724 -0.947889 4.39446
Spine1  2.56975 0.0924104 -3.68689
HEad  -21.5627 -6.63301 2.42357
LeftShoulder1  0.507104 -1.95847 -1.02201
LeftArm  -19.4774 24.1752 -9.15109
LeftForeArm  10.9748 -10.1267 -0.979597
LeftHand  -0.25398 0.0180481 5.50724
RightShoulder  0.828478 0.720919 12.5395
RightArm  -4.64193 -8.92498 1.23433
RightForeArm  -29.2246 8.29223 9.60601
RightHand  -2.95777 7.84122 -25.9648
LeftUpLeg  0.2224 4.90095 3.74255
LeftLeg  6.33354 2.86597 -1.72415
LeftFoot  -0.00742477 0.0773825 -0.781413
LeftToes  1.06247e-005 4.65854e-005 -8.18502e-006
138
root  -79.5814 41.6083 -9.34488 -143.577 -89.2501 136.819
RightUpLeg  3.79506 -7.12721 -2.57698
RightLeg  7.10547 4.67982 3.87464
RightFoot  -2.00726 0.4297 -5.42151
RightToes  0.000482159 0.542163 -0.142577
Spine  7.01853 -0.833012 4.2324
Spine1  2.10927 0.17982 -3.74521
HEad  -20.4243 -5.65249 1.14582
LeftShoulder1  0.432078 -1.77168 0.294374
LeftArm  -19.4527 22.9928 -7.79112
LeftForeArm  10.5426 -9.45929 -0.878498
LeftHand  -0.25398 0.0180481 5.50724
RightShoulder  0.609285 0.235622 8.90416
RightArm  -5.38729 -9.09296 0.939423
RightForeArm  -29.0296 8.35578 9.23793
RightHand  -2.98642 7.83629 -26.1475
LeftUpLeg  0.504883 4.62487 3.49497
LeftLeg  5.73044 3.29445 -1.88323
LeftFoot  0.232096 0.0245414 -0.253407
LeftToes  1.06247e-005 4.65854e-005 -8.18502e-006
139
root  -79.8637 41.6386 -9.29692 -139.003 -89.2356 132.895
RightUpLeg  3.74139 -7.01355 -2.62081
RightLeg  6.72548 4.59848 3.72764
RightFoot  -2.25655 0.399201 -5.2096
RightToes  0.000482159 0.542163 -0.142577
Spine  6.93105 -0.749122 3.88238
Spine1  0.797917 0.0467822 -2.98311
HEad  -19.1004 -4.63366 -0.395095
LeftShoulder1  0.434225 -1.96823 0.609395
LeftArm  -19.2981 22.0024 -6.21555
LeftForeArm  10.9938 -8.85749 -0.777532
LeftHand  -0.25398 0.0180481 5.50724
RightShoulder  0.509716 0.536687 4.83737
RightArm  -12.5002 -9.44008 1.86381
RightForeArm  -20.2157 5.59725 6.53801
RightHand  -2.56854 7.01775 -24.1172
LeftUpLeg  0.439518 4.40112 3.30624
LeftLeg  5.41812 3.49902 -1.90784
LeftFoot  -0.172577 -0.0108773 0.121121
LeftToes  1.06247e-005 4.65854e-005 -8.18502e-006
140
root  -80.1295 41.6752 -9.24258 -130.847 -89.3022 125.321
RightUpLeg  3.89974 -6.86406 -2.61329
RightLeg  5.99932 4.36049 3.51547
RightFoot  -2.29628 0.377372 -4.9653
RightToes  0.000482159 0.542163 -0.142577
Spine  6.85387 -0.908245 3.40895
Spine1  -0.377306 -0.264483 -2.50637
HEad  -17.8374 -3.62879 -1.034
LeftShoulder1  0.354725 -1.66819 1.78995
LeftArm  -19.3812 21.3322 -6.17938
LeftForeArm  10.1964 -8.12825 -0.72551
LeftHand  -0.25398 0.0180481 5.50724
RightShoulder  0.541427 1.46321 2.71899
RightArm  -9.87207 -8.73449 0.14128
RightForeArm  -21.8048 3.56892 7.17361
RightHand  -2.82501 8.05839 -24.4519
LeftUpLeg  0.48368 4.32864 3.2705
LeftLeg  4.89709 3.49193 -2.11845
LeftFoot  -0.443857 -0.0154241 0.189369
LeftToes  1.06247e-005 4.65854e-005 -8.18502e-006
141
root  -80.3859 41.7155 -9.17914 -124.728 -89.3285 119.772
RightUpLeg  4.14709 -6.75233 -2.63055
RightLeg  5.05982 4.17502 3.32585
RightFoot  -2.1612 0.370295 -4.79281
RightToes  0.000482159 0.542163 -0.142577
Spine  6.04076 -0.81813 3.55806
Spine1  0.518524 -0.126163 -2.70786
HEad  -17.8913 -3.61147 -1.17395
LeftShoulder1  0.30322 -0.692783 1.58083
LeftArm  -19.7749 18.6857 -6.0289
LeftForeArm  9.39148 -7.04248 -0.712667
LeftHand  -0.25398 0.0180481 5.50724
RightShoulder  0.257541 -0.462301 0.953978
RightArm  -10.135 -7.13938 0.290528
RightForeArm  -22.6055 3.68107 7.37933
RightHand  -3.10572 9.12181 -24.9012
LeftUpLeg  0.656369 4.30229 3.26549
LeftLeg  4.06483 3.53022 -2.46425
LeftFoot  -0.0850952 -0.0396651 0.406702
LeftToes  1.06247e-005 4.65854e-005 -8.18502e-006
142
root  -80.6123 41.7458 -9.11391 -126.802 -89.2877 122.418
RightUpLeg  4.21104 -6.66634 -2.67107
RightLeg  4.37654 4.10322 3.20677
RightFoot  -2.11317 0.361419 -4.64905
RightToes  0.000482159 0.542163 -0.142577
Spine  4.43399 -0.659085 4.77123
Spine1  4.05061 0.617857 -5.17756
HEad  -19.9772 -4.15098 0.11639
LeftShoulder1  0.0714933 2.30113 2.77262
LeftArm  -21.8193 13.9993 -7.99665
LeftForeArm  9.8259 -6.33742 -0.535577
LeftHand  -0.25398 0.0180481 5.50724
RightShoulder  -0.204306 -5.41092 3.23388
RightArm  -11.5723 -2.15724 -0.419641
RightForeArm  -24.5838 3.43446 7.66347
RightHand  -3.44594 10.3508 -25.4609
LeftUpLeg  0.800832 4.2903 3.21848
LeftLeg  3.26665 3.63745 -2.7218
LeftFoot  0.256072 -0.0681014 0.656291
LeftToes  1.06247e-005 4.65854e-005 -8.18502e-006
143
root  -80.7938 41.7623 -9.05544 -134.435 -89.1735 130.456
RightUpLeg  4.13249 -6.59179 -2.72535
RightLeg  4.18685 4.13102 3.11332
RightFoot  -2.23868 0.341082 -4.46979
RightToes  0.000482159 0.542163 -0.142577
Spine  4.63239 -0.792177 4.41515
Spine1  2.92715 0.409947 -5.10702
HEad  -18.9206 -3.05916 0.151916
LeftShoulder1  0.124124 1.25695 3.2724
LeftArm  -21.0428 15.1046 -7.87299
LeftForeArm  8.88724 -6.0661 -0.662598
LeftHand  -0.25398 0.0180481 5.50724
RightShoulder  -0.017646 -3.58987 2.387
RightArm  -10.0596 -2.39589 -1.34608
RightForeArm  -26.5411 2.00988 8.07387
RightHand  -3.42891 10.2798 -25.435
LeftUpLeg  0.966888 4.34596 3.17588
LeftLeg  2.70938 3.73649 -2.89093
LeftFoot  0.220863 -0.0721301 0.699508
LeftToes  1.06247e-005 4.65854e-005 -8.18502e-006
144
root  -80.9472 41.7742 -8.99524 -140.637 -89.0106 136.851
RightUpLeg  4.1161 -6.53457 -2.81416
RightLeg  4.22988 4.2299 3.00125
RightFoot  -2.38143 0.318704 -4.26898
RightToes  0.000482159 0.542163 -0.142577
Spine  5.66481 -1.13536 3.4208
Spine1  0.192784 -0.238908 -4.21567
HEad  -16.0754 -1.09007 -0.0280014
LeftShoulder1  0.217136 -0.779644 3.88625
LeftArm  -18.7917 17.9438 -7.95587
LeftForeArm  3.64524 -5.61927 -1.24516
LeftHand  -0.25398 0.0180481 5.50724
RightShoulder  0.413529 0.774735 1.31652
RightArm  -6.75037 -3.92855 -2.86265
RightForeArm  -27.2151 -0.347362 8.76024
RightHand  -3.1488 9.75997 -24.2319
LeftUpLeg  1.25307 4.40135 3.1091
LeftLeg  2.24944 3.88588 -3.03966
LeftFoot  0.229562 -0.0787244 0.762989
LeftToes  1.06247e-005 4.65854e-005 -8.18502e-006
145
root  -81.0974 41.7883 -8.92352 -141.619 -88.8996 138.012
RightUpLeg  4.18004 -6.51267 -2.94233
RightLeg  4.15251 4.31 2.88902
RightFoot  -2.45142 0.302206 -4.09711
RightToes  0.000482159 0.542163 -0.142577
Spine  5.80145 -1.19731 3.21461
Spine1  0.124203 -0.298365 -4.27859
HEad  -14.2684 0.00892692 0.201625
LeftShoulder1  0.227533 -0.8325 3.65198
LeftArm  -18.428 17.4406 -7.97808
LeftForeArm  3.4394 -4.69762 -1.28189
LeftHand  -0.25398 0.0180481 5.50724
RightShoulder  0.436634 0.967216 1.54205
RightArm  -5.60858 -2.67508 -3.18277
RightForeArm  -28.5944 -1.59095 9.35305
RightHand  -3.21198 10.0524 -24.2468
LeftUpLeg  1.52939 4.3373 2.93037
LeftLeg  1.7726 4.10004 -3.09454
LeftFoot  0.43301 -0.104674 0.989903
LeftToes  1.06247e-005 4.65854e-005 -8.18502e-006
146
root  -81.2459 41.7995 -8.84921 -138.303 -88.9172 135.001
RightUpLeg  4.20864 -6.51759 -3.05352
RightLeg  3.91046 4.26358 2.81283
RightFoot  -2.51092 0.290417 -3.97647
RightToes  0.000482159 0.542163 -0.142577
Spine  5.81886 -1.2972 2.92627
Spine1  -0.238613 -0.458084 -4.1003
HEad  -12.1267 1.06273 0.292033
LeftShoulder1  0.248544 -1.0215 3.31998
LeftArm  -17.8601 17.1606 -8.04503
LeftForeArm  3.00964 -3.83814 -1.39778
LeftHand  -0.25398 0.0180481 5.50724
RightShoulder  0.499508 1.49866 1.72886
RightArm  -4.33328 -1.81884 -3.3415
RightForeArm  -29.5305 -2.77363 9.94584
RightHand  -3.26869 10.3196 -24.2743
LeftUpLeg  1.56634 4.17887 2.71269
LeftLeg  1.47464 4.25429 -3.04995
LeftFoot  0.468304 -0.123788 1.17051
LeftToes  1.06247e-005 4.65854e-005 -8.18502e-006
